<?xml version="1.0" encoding="UTF-8" standalone="no"?>
<!-- Created with Inkscape (http://www.inkscape.org/) -->

<svg
   xmlns:dc="http://purl.org/dc/elements/1.1/"
   xmlns:cc="http://creativecommons.org/ns#"
   xmlns:rdf="http://www.w3.org/1999/02/22-rdf-syntax-ns#"
   xmlns:svg="http://www.w3.org/2000/svg"
   xmlns="http://www.w3.org/2000/svg"
   xmlns:sodipodi="http://sodipodi.sourceforge.net/DTD/sodipodi-0.dtd"
   xmlns:inkscape="http://www.inkscape.org/namespaces/inkscape"
   width="249.48445mm"
   height="265.57111mm"
   viewBox="0 0 884.00002 940.99998"
   id="svg2"
   version="1.1"
   inkscape:version="0.91 r13725"
   sodipodi:docname="debian-mobile.svg">
  <defs
     id="defs4">
    <filter
       id="filter4243"
       inkscape:collect="always"
       color-interpolation-filters="sRGB">
      <feGaussianBlur
         id="feGaussianBlur4245"
         stdDeviation="19.837057"
         inkscape:collect="always" />
    </filter>
  </defs>
  <sodipodi:namedview
     id="base"
     pagecolor="#ffffff"
     bordercolor="#666666"
     borderopacity="1.0"
     inkscape:pageopacity="0.0"
     inkscape:pageshadow="2"
     inkscape:zoom="0.49497475"
     inkscape:cx="639.01728"
     inkscape:cy="812.56874"
     inkscape:document-units="px"
     inkscape:current-layer="layer1"
     showgrid="false"
     fit-margin-top="0"
     fit-margin-left="0"
     fit-margin-right="0"
     fit-margin-bottom="0"
     inkscape:window-width="1366"
     inkscape:window-height="705"
     inkscape:window-x="0"
     inkscape:window-y="0"
     inkscape:window-maximized="1">
    <inkscape:grid
       type="xygrid"
       id="grid3349" />
  </sodipodi:namedview>
  <metadata
     id="metadata7">
    <rdf:RDF>
      <cc:Work
         rdf:about="">
        <dc:format>image/svg+xml</dc:format>
        <dc:type
           rdf:resource="http://purl.org/dc/dcmitype/StillImage" />
        <dc:title></dc:title>
      </cc:Work>
    </rdf:RDF>
  </metadata>
  <g
     inkscape:label="Layer 1"
     inkscape:groupmode="layer"
     id="layer1"
     transform="translate(90.571426,43.852081)">
    <rect
       style="opacity:1;fill:#259539;fill-opacity:1;fill-rule:evenodd;stroke:#000000;stroke-width:1px;stroke-linecap:butt;stroke-linejoin:miter;stroke-opacity:0.77710841"
       id="rect3351"
       width="210"
       height="140"
       x="-70.571434"
       y="58.576488" />
    <text
       xml:space="preserve"
       style="font-style:normal;font-weight:normal;font-size:40px;line-height:125%;font-family:sans-serif;letter-spacing:0px;word-spacing:0px;fill:#000000;fill-opacity:1;stroke:none;stroke-width:1px;stroke-linecap:butt;stroke-linejoin:miter;stroke-opacity:1"
       x="-60.571426"
       y="77.147919"
       id="text4415"
       sodipodi:linespacing="125%"><tspan
         sodipodi:role="line"
         id="tspan4417"
         x="-60.571426"
         y="77.147919" /></text>
    <text
       xml:space="preserve"
       style="font-style:normal;font-weight:normal;font-size:40px;line-height:125%;font-family:sans-serif;letter-spacing:0px;word-spacing:0px;fill:#000000;fill-opacity:1;stroke:none;stroke-width:1px;stroke-linecap:butt;stroke-linejoin:miter;stroke-opacity:1"
       x="-60.571426"
       y="97.147919"
       id="text4419"
       sodipodi:linespacing="125%"><tspan
         sodipodi:role="line"
         id="tspan4421"
         x="-60.571426"
         y="97.147919"
         style="font-size:25px">Plasma-Mobile</tspan><tspan
         sodipodi:role="line"
         x="-60.571426"
         y="119.73732"
         id="tspan4423"
         style="font-size:12.5px">lockscreen, homescreen, </tspan><tspan
         sodipodi:role="line"
         x="-60.571426"
         y="135.36232"
         style="font-size:12.5px"
         id="tspan4425">status bar</tspan></text>
    <rect
       style="opacity:1;fill:#259539;fill-opacity:1;stroke:#000000;stroke-width:1.10884333;stroke-opacity:0.77710841"
       id="rect4427"
       width="479.89117"
       height="139.89116"
       x="149.48299"
       y="57.202343" />
    <text
       xml:space="preserve"
       style="font-style:normal;font-weight:normal;font-size:40px;line-height:125%;font-family:sans-serif;letter-spacing:0px;word-spacing:0px;fill:#000000;fill-opacity:1;stroke:none;stroke-width:1px;stroke-linecap:butt;stroke-linejoin:miter;stroke-opacity:1"
       x="159.42857"
       y="97.147919"
       id="text4429"
       sodipodi:linespacing="125%"><tspan
         sodipodi:role="line"
         id="tspan4431"
         x="159.42857"
         y="97.147919"
         style="font-size:25px">QML apps</tspan><tspan
         sodipodi:role="line"
         x="159.42857"
         y="128.39792"
         style="font-size:12.5px"
         id="tspan4433">apps for QtQuick, kirigami</tspan></text>
    <rect
       style="opacity:1;fill:#1e4c5c;fill-opacity:1;stroke:#750000;stroke-opacity:0.77710843"
       id="rect4437"
       width="700"
       height="350"
       x="-70.571426"
       y="207.14792" />
    <text
       xml:space="preserve"
       style="font-style:normal;font-weight:normal;font-size:40px;line-height:125%;font-family:sans-serif;letter-spacing:0px;word-spacing:0px;fill:#000000;fill-opacity:1;stroke:none;stroke-width:1px;stroke-linecap:butt;stroke-linejoin:miter;stroke-opacity:1"
       x="-60.571426"
       y="247.14792"
       id="text4439"
       sodipodi:linespacing="125%"><tspan
         sodipodi:role="line"
         x="-60.571426"
         y="247.14792"
         style="font-size:25px"
         id="tspan4443">Debian Core</tspan></text>
    <rect
       style="opacity:1;fill:#8e1115;fill-opacity:1;stroke:#750000;stroke-width:0.8528493;stroke-opacity:0.77710841"
       id="rect4447"
       width="270.14716"
       height="79.965126"
       x="-60.645"
       y="257.07434" />
    <text
       xml:space="preserve"
       style="font-style:normal;font-weight:normal;font-size:40px;line-height:125%;font-family:sans-serif;letter-spacing:0px;word-spacing:0px;fill:#000000;fill-opacity:1;stroke:none;stroke-width:1px;stroke-linecap:butt;stroke-linejoin:miter;stroke-opacity:1"
       x="-50.571426"
       y="297.14792"
       id="text4449"
       sodipodi:linespacing="125%"><tspan
         sodipodi:role="line"
         id="tspan4451"
         x="-50.571426"
         y="297.14792"
         style="font-size:25px">Multimedia</tspan><tspan
         sodipodi:role="line"
         x="-50.571426"
         y="315.93857"
         style="font-size:12.5px"
         id="tspan4453">gstreamer, QtMultimedia, </tspan><tspan
         sodipodi:role="line"
         x="-50.571426"
         y="331.56357"
         style="font-size:12.5px"
         id="tspan4455">(Pulse / chromium audio)</tspan></text>
    <rect
       style="opacity:1;fill:#8e1115;fill-opacity:1;stroke:#750000;stroke-width:0.40172699;stroke-opacity:0.77710841"
       id="rect4457"
       width="120.59827"
       height="17.664238"
       x="499.12946"
       y="318.46811" />
    <text
       xml:space="preserve"
       style="font-style:normal;font-weight:normal;font-size:40px;line-height:125%;font-family:sans-serif;letter-spacing:0px;word-spacing:0px;fill:#000000;fill-opacity:1;stroke:none;stroke-width:1px;stroke-linecap:butt;stroke-linejoin:miter;stroke-opacity:1"
       x="542.17194"
       y="333.43292"
       id="text4459"
       sodipodi:linespacing="125%"><tspan
         sodipodi:role="line"
         id="tspan4461"
         x="542.17194"
         y="333.43292"
         style="font-size:25px">Qt</tspan></text>
    <rect
       style="opacity:1;fill:#8e1115;fill-opacity:1;stroke:#750000;stroke-opacity:0.77710841"
       id="rect4463"
       width="120.00002"
       height="50"
       x="499.42859"
       y="257.14792" />
    <text
       xml:space="preserve"
       style="font-style:normal;font-weight:normal;font-size:40px;line-height:125%;font-family:sans-serif;letter-spacing:0px;word-spacing:0px;fill:#000000;fill-opacity:1;stroke:none;stroke-width:1px;stroke-linecap:butt;stroke-linejoin:miter;stroke-opacity:1"
       x="505.38797"
       y="275.12762"
       id="text4465"
       sodipodi:linespacing="125%"><tspan
         sodipodi:role="line"
         id="tspan4467"
         x="505.38797"
         y="275.12762"
         style="font-size:25px">Kirigami</tspan><tspan
         sodipodi:role="line"
         x="505.38797"
         y="306.37762"
         style="font-size:25px"
         id="tspan4472">Ui</tspan></text>
    <rect
       style="opacity:1;fill:#8e1115;fill-opacity:1;stroke:#750000;stroke-opacity:0.77710841"
       id="rect4474"
       width="680"
       height="60"
       x="-60.571426"
       y="347.14792" />
    <text
       xml:space="preserve"
       style="font-style:normal;font-weight:normal;font-size:40px;line-height:125%;font-family:sans-serif;letter-spacing:0px;word-spacing:0px;fill:#000000;fill-opacity:1;stroke:none;stroke-width:1px;stroke-linecap:butt;stroke-linejoin:miter;stroke-opacity:1"
       x="-50.571426"
       y="367.14792"
       id="text4476"
       sodipodi:linespacing="125%"><tspan
         sodipodi:role="line"
         id="tspan4478"
         x="-50.571426"
         y="367.14792"
         style="font-size:25px">Connectivity</tspan><tspan
         sodipodi:role="line"
         x="-50.571426"
         y="398.39792"
         style="font-size:12.5px"
         id="tspan4480">networkmanager / conman, ofono, wpa_supplicant, BlueZ, obexd, usb-moded ...</tspan></text>
    <rect
       style="opacity:1;fill:#8e1115;fill-opacity:1;stroke:#750000;stroke-opacity:0.77710841"
       id="rect4482"
       width="680"
       height="60"
       x="-60.571426"
       y="417.14792" />
    <text
       xml:space="preserve"
       style="font-style:normal;font-weight:normal;font-size:40px;line-height:125%;font-family:sans-serif;letter-spacing:0px;word-spacing:0px;fill:#000000;fill-opacity:1;stroke:none;stroke-width:1px;stroke-linecap:butt;stroke-linejoin:miter;stroke-opacity:1"
       x="-50.571426"
       y="437.14792"
       id="text4484"
       sodipodi:linespacing="125%"><tspan
         sodipodi:role="line"
         id="tspan4486"
         x="-50.571426"
         y="437.14792"
         style="font-size:25px">System libraries</tspan><tspan
         sodipodi:role="line"
         x="-50.571426"
         y="455.93857"
         style="font-size:12.5px"
         id="tspan4488">Systemd, dbus, mce, dsme, ngfd, timed, hmd, sensord, satefs, sociald, tracker,</tspan><tspan
         sodipodi:role="line"
         x="-50.571426"
         y="471.56357"
         style="font-size:12.5px"
         id="tspan4492">system-monitor, dconf, oneshot, udev ...</tspan><tspan
         sodipodi:role="line"
         x="-50.571426"
         y="487.18857"
         style="font-size:25px"
         id="tspan4490" /></text>
    <rect
       style="opacity:1;fill:#8e1115;fill-opacity:1;stroke:#750000;stroke-width:0.77394062;stroke-opacity:0.77710841"
       id="rect4494"
       width="131.28188"
       height="60.226059"
       x="-60.684456"
       y="487.03491" />
    <text
       xml:space="preserve"
       style="font-style:normal;font-weight:normal;font-size:40px;line-height:125%;font-family:sans-serif;letter-spacing:0px;word-spacing:0px;fill:#000000;fill-opacity:1;stroke:none;stroke-width:1px;stroke-linecap:butt;stroke-linejoin:miter;stroke-opacity:1"
       x="-50.571426"
       y="507.14792"
       id="text4496"
       sodipodi:linespacing="125%"><tspan
         sodipodi:role="line"
         id="tspan4498"
         x="-50.571426"
         y="507.14792"
         style="font-size:25px">Graphics</tspan><tspan
         sodipodi:role="line"
         x="-50.571426"
         y="538.39795"
         style="font-size:12.5px"
         id="tspan4500">wayland</tspan></text>
    <rect
       style="opacity:1;fill:#8e1115;fill-opacity:1;stroke:#750000;stroke-opacity:0.77710841"
       id="rect4502"
       width="210"
       height="60"
       x="79.428574"
       y="487.14792" />
    <text
       xml:space="preserve"
       style="font-style:normal;font-weight:normal;font-size:40px;line-height:125%;font-family:sans-serif;letter-spacing:0px;word-spacing:0px;fill:#000000;fill-opacity:1;stroke:none;stroke-width:1px;stroke-linecap:butt;stroke-linejoin:miter;stroke-opacity:1"
       x="89.428574"
       y="507.14792"
       id="text4504"
       sodipodi:linespacing="125%"><tspan
         sodipodi:role="line"
         id="tspan4506"
         x="89.428574"
         y="507.14792"
         style="font-size:25px">Essentials</tspan><tspan
         sodipodi:role="line"
         x="89.428574"
         y="557.14795"
         id="tspan4508"
         style="font-size:12.5px">glibc, libstdc++...</tspan></text>
    <rect
       style="opacity:1;fill:#8e1115;fill-opacity:1;stroke:#750000;stroke-width:1.56021988;stroke-opacity:0.77710841"
       id="rect4510"
       width="319.43979"
       height="59.439781"
       x="299.70871"
       y="487.42804" />
    <text
       xml:space="preserve"
       style="font-style:normal;font-weight:normal;font-size:40px;line-height:125%;font-family:sans-serif;letter-spacing:0px;word-spacing:0px;fill:#000000;fill-opacity:1;stroke:none;stroke-width:1px;stroke-linecap:butt;stroke-linejoin:miter;stroke-opacity:1"
       x="309.42859"
       y="507.14792"
       id="text4512"
       sodipodi:linespacing="125%"><tspan
         sodipodi:role="line"
         id="tspan4514"
         x="309.42859"
         y="507.14792"
         style="font-size:25px">Software management</tspan><tspan
         sodipodi:role="line"
         x="309.42859"
         y="538.39795"
         style="font-size:25px"
         id="tspan4522">apt, dpkg, packagekit</tspan><tspan
         sodipodi:role="line"
         x="309.42859"
         y="569.64795"
         style="font-size:25px"
         id="tspan4518" /><tspan
         sodipodi:role="line"
         x="309.42859"
         y="600.89795"
         style="font-size:25px"
         id="tspan4520" /><tspan
         sodipodi:role="line"
         x="309.42859"
         y="632.14795"
         id="tspan4516" /></text>
    <path
       style="fill:none;fill-rule:evenodd;stroke:#000000;stroke-width:1px;stroke-linecap:butt;stroke-linejoin:miter;stroke-opacity:1"
       d="m 664.42857,597.14792 -754.999996,0"
       id="path4524"
       inkscape:connector-curvature="0" />
    <text
       xml:space="preserve"
       style="font-style:normal;font-weight:normal;font-size:40px;line-height:125%;font-family:sans-serif;letter-spacing:0px;word-spacing:0px;fill:#000000;fill-opacity:1;stroke:none;stroke-width:1px;stroke-linecap:butt;stroke-linejoin:miter;stroke-opacity:1"
       x="-40.571426"
       y="587.14795"
       id="text4526"
       sodipodi:linespacing="125%"><tspan
         sodipodi:role="line"
         id="tspan4528"
         x="-40.571426"
         y="587.14795"
         style="font-size:25px">Architecutre will support different  kernels and hardware targets</tspan><tspan
         sodipodi:role="line"
         x="-40.571426"
         y="618.39795"
         style="font-size:25px"
         id="tspan4530">Hardware adaption seperate from the platform</tspan></text>
    <rect
       style="opacity:1;fill:#242c37;fill-opacity:1;stroke:#750000;stroke-opacity:0.77710841"
       id="rect4534"
       width="350"
       height="209.99997"
       x="-70.571426"
       y="637.14795" />
    <text
       xml:space="preserve"
       style="font-style:normal;font-weight:normal;font-size:25px;line-height:125%;font-family:sans-serif;letter-spacing:0px;word-spacing:0px;fill:#000000;fill-opacity:1;stroke:none;stroke-width:1px;stroke-linecap:butt;stroke-linejoin:miter;stroke-opacity:1"
       x="-60.571426"
       y="657.14795"
       id="text4536"
       sodipodi:linespacing="125%"><tspan
         sodipodi:role="line"
         id="tspan4538"
         x="-60.571426"
         y="657.14795"
         style="fill:#ffffff;fill-opacity:1">Hardware Adaption</tspan><tspan
         sodipodi:role="line"
         x="-60.571426"
         y="682.16827"
         style="font-size:18.75px;fill:#ffffff;fill-opacity:1"
         id="tspan4542">Libhybris (bionic based):</tspan><tspan
         sodipodi:role="line"
         x="-60.571426"
         y="699.3761"
         style="font-size:12.5px;fill:#ffffff;fill-opacity:1"
         id="tspan4546">phone (RTL), sensors, graphics, audio, (OpenGL ES, </tspan><tspan
         sodipodi:role="line"
         x="-60.571426"
         y="715.0011"
         style="font-size:12.5px;fill:#ffffff;fill-opacity:1"
         id="tspan4548">camera, NFC, Video encoders / decoders)</tspan><tspan
         sodipodi:role="line"
         x="-60.571426"
         y="730.6261"
         style="font-size:12.5px;fill:#ffffff;fill-opacity:1"
         id="tspan4550" /><tspan
         sodipodi:role="line"
         x="-60.571426"
         y="752.48077"
         style="font-size:18.75px;fill:#ffffff;fill-opacity:1"
         id="tspan4552">Other </tspan><tspan
         sodipodi:role="line"
         x="-60.571426"
         y="775.91827"
         style="font-size:18.75px;fill:#ffffff;fill-opacity:1"
         id="tspan4554">(probably some things from android)</tspan><tspan
         sodipodi:role="line"
         x="-60.571426"
         y="799.35577"
         style="font-size:18.75px;fill:#ffffff;fill-opacity:1"
         id="tspan4556"><tspan
   style="font-size:12.5px"
   id="tspan4558">bluetooth, battery, WLAN, kerne</tspan>l</tspan><tspan
         sodipodi:role="line"
         x="-60.571426"
         y="822.79327"
         style="font-size:18.75px;fill:#ffffff;fill-opacity:1"
         id="tspan4544" /><tspan
         sodipodi:role="line"
         x="-60.571426"
         y="846.23077"
         id="tspan4540" /></text>
    <rect
       style="opacity:1;fill:#62666f;fill-opacity:1;stroke:#750000;stroke-opacity:0.77710841"
       id="rect4560"
       width="350"
       height="50"
       x="-70.571426"
       y="847.14795" />
    <text
       xml:space="preserve"
       style="font-style:normal;font-weight:normal;font-size:25px;line-height:125%;font-family:sans-serif;letter-spacing:0px;word-spacing:0px;fill:#000000;fill-opacity:1;stroke:none;stroke-width:1px;stroke-linecap:butt;stroke-linejoin:miter;stroke-opacity:1"
       x="-60.571426"
       y="887.14795"
       id="text4562"
       sodipodi:linespacing="125%"><tspan
         sodipodi:role="line"
         id="tspan4564"
         x="-60.571426"
         y="887.14795"
         style="font-size:21.25px">Android compatible Hardware</tspan></text>
    <rect
       style="opacity:1;fill:#62666f;fill-opacity:1;stroke:#750000;stroke-opacity:0.77710841"
       id="rect4560-3"
       width="350"
       height="50"
       x="294.388"
       y="848.05658" />
    <text
       xml:space="preserve"
       style="font-style:normal;font-weight:normal;font-size:25px;line-height:125%;font-family:sans-serif;letter-spacing:0px;word-spacing:0px;fill:#000000;fill-opacity:1;stroke:none;stroke-width:1px;stroke-linecap:butt;stroke-linejoin:miter;stroke-opacity:1"
       x="309.42859"
       y="877.14795"
       id="text4581"
       sodipodi:linespacing="125%"><tspan
         sodipodi:role="line"
         id="tspan4583"
         x="309.42859"
         y="877.14795" /></text>
    <text
       xml:space="preserve"
       style="font-style:normal;font-weight:normal;font-size:25px;line-height:125%;font-family:sans-serif;letter-spacing:0px;word-spacing:0px;fill:#000000;fill-opacity:1;stroke:none;stroke-width:1px;stroke-linecap:butt;stroke-linejoin:miter;stroke-opacity:1"
       x="309.42859"
       y="887.14795"
       id="text4585"
       sodipodi:linespacing="125%"><tspan
         sodipodi:role="line"
         id="tspan4587"
         x="309.42859"
         y="887.14795"
         style="font-size:21.25px">Linux compatible Hardware</tspan></text>
    <rect
       style="opacity:1;fill:#242c37;fill-opacity:1;stroke:#750000;stroke-opacity:0.77710841"
       id="rect4534-6"
       width="350"
       height="209.99997"
       x="291.55551"
       y="639.57434" />
    <text
       xml:space="preserve"
       style="font-style:normal;font-weight:normal;font-size:25px;line-height:125%;font-family:sans-serif;letter-spacing:0px;word-spacing:0px;fill:#000000;fill-opacity:1;stroke:none;stroke-width:1px;stroke-linecap:butt;stroke-linejoin:miter;stroke-opacity:1"
       x="299.42859"
       y="657.14795"
       id="text4604"
       sodipodi:linespacing="125%"><tspan
         sodipodi:role="line"
         x="299.42859"
         y="657.14795"
         style="fill:#ffffff"
         id="tspan4608">Hardware Adaption</tspan><tspan
         sodipodi:role="line"
         x="299.42859"
         y="688.39795"
         style="fill:#ffffff"
         id="tspan4610">Native Linux based:</tspan><tspan
         sodipodi:role="line"
         x="299.42859"
         y="719.64795"
         style="fill:#ffffff"
         id="tspan4645" /><tspan
         sodipodi:role="line"
         x="299.42859"
         y="738.4386"
         style="font-size:12.5px;fill:#ffffff"
         id="tspan4612">kernel, bluetooth, WLAN, battery, sensors, graghics,</tspan><tspan
         sodipodi:role="line"
         x="299.42859"
         y="754.0636"
         style="font-size:12.5px;fill:#ffffff"
         id="tspan4614"> (OpenGL ES), camera, NFC, adio, camea, NFC, </tspan><tspan
         sodipodi:role="line"
         x="299.42859"
         y="769.6886"
         style="font-size:12.5px;fill:#ffffff"
         id="tspan4616">audio ...)</tspan></text>
    <text
       xml:space="preserve"
       style="font-style:normal;font-weight:normal;font-size:25px;line-height:125%;font-family:sans-serif;letter-spacing:0px;word-spacing:0px;fill:#000000;fill-opacity:1;stroke:none;stroke-width:1px;stroke-linecap:butt;stroke-linejoin:miter;stroke-opacity:1"
       x="549.42859"
       y="687.14795"
       id="text4639"
       sodipodi:linespacing="125%"><tspan
         sodipodi:role="line"
         id="tspan4641"
         x="549.42859"
         y="687.14795"></tspan><tspan
         sodipodi:role="line"
         x="549.42859"
         y="718.39795"
         id="tspan4643" /></text>
    <g
       transform="matrix(0.27493691,0,0,0.21455694,-121.22292,-103.12269)"
       id="layer1-5"
       inkscape:label="Ebene 1">
      <g
         style="display:inline;opacity:0.5;fill:#000000;filter:url(#filter4243)"
         transform="matrix(0.35142463,0,0,-0.35142463,184.6321,726.22209)"
         id="g3390">
        <path
           id="path3392"
           style="fill:#000000;fill-opacity:1;fill-rule:nonzero;stroke:none"
           d="m 467.309,1079.88 c 9.589,-1.72 20.742,-3.04 19.16,-5.33 10.492,2.3 12.883,4.42 -19.16,5.33"
           inkscape:connector-curvature="0" />
        <path
           id="path3394"
           style="fill:#000000;fill-opacity:1;fill-rule:nonzero;stroke:none"
           d="m 486.469,1074.55 -6.77,-1.4 6.313,0.56 0.457,0.84"
           inkscape:connector-curvature="0" />
        <path
           sodipodi:nodetypes="cccccccccccccccccccccccccccccccccccccccccccccccccccccccccccccccccccccccccccccccccccccccccccccccc"
           id="path3396"
           style="fill:#000000;fill-opacity:1;fill-rule:nonzero;stroke:none"
           d="m 785.52,625.309 c 1.07,-29.059 -8.489,-43.161 -17.129,-68.118 l -15.532,-7.761 c -12.699,-24.68 1.243,-15.68 -7.871,-35.309 -19.84,-17.641 -27.37497,-44.61629 -40.28497,-48.05829 -9.449,0.211 -24.77056,-25.74264 -22.70056,-21.46564 -26.562,-18.238 0.93254,-12.11912 -39.68846,-23.19812 l -19.61782,-12.61788 c -100.191,-47.133 -232.35834,22.74588 -230.52634,150.18288 -1.07,-8.09 -3.043,-6.07 -5.261,-9.34 -5.168,65.571 30.281,131.43 90.07,158.321 58.488,28.949 127.039,17.07 168.941,-21.969 -23.011,30.14 -81.39994,90.86243 -135.67694,87.86943 -53.172,-0.839 -133.48171,-41.82111 -150.08271,-78.50111 -27.238,-17.149 -35.79383,-93.08415 -47.66483,-102.04415 -15.98,-117.372 53.4096,-187.85205 131.2486,-247.50005 12.239,-8.262 3.438,-9.512 5.098,-15.801 -25.859,12.109 -56.7321,44.77722 -76.2011,67.15622 10.328,-15.11 28.6741,-44.20722 43.0841,-55.74622 -24.383,8.262 -64.1461,59.078 -73.6541,61.149 42.027,-75.258 177.7011,-131.969 245.0021,-103.829 -31.141,-1.148 -70.688,-0.64 -105.668,12.29 -14.704,7.55 -34.68,23.218 -31.102,26.152 91.809,-34.301 226.34318,9.45784 305.78018,73.14584 20.223,15.742 53.09067,65.8966 59.46967,66.2686 -9.609,-14.45 -18.14005,0.24311 -25.51905,-12.50689 20.129,32.481 2.03966,-8.36033 31.59766,34.51067 l 5.52717,2.94377 c -4.062,26.969 44.27866,57.91272 40.45766,100.54972 8.621,13.043 9.61,-14.028 0.473,-44.028 12.68,33.278 3.348,38.629 6.598,66.09 3.519,-9.23 8.152,-19.043 10.519,-28.781 -8.269,32.16 8.461,54.16 12.609,72.852 -4.089,1.808 -12.75,-14.223 -14.718,23.769 0.281,16.5 4.59,8.649 6.242,12.711 -3.242,1.859 -11.742,14.508 -16.91,38.77 3.738,5.699 10.019,-14.782 15.109,-15.622 -3.269,19.29 -8.922,34 -9.16,48.801 -14.902,31.141 -5.27,-4.152 -17.359,13.367 -15.852,49.473 13.16,11.481 15.117,33.961 24.051,-34.828 37.75,-88.808 44.051,-111.168 -4.809,27.258 -12.559,53.668 -22.051,79.219 7.32,-3.07 -11.75,56.09 9.511,16.91 -22.71,83.52 -131.31526,175.94522 -199.81526,212.56622 8.367,-7.67 18.957,-17.3 15.156,-18.81 -34.058,20.28 -28.078,21.86 -32.957,30.43 -27.742,11.29 -29.562,-0.91 -47.941,-0.02 -52.301,27.74 -62.379,24.79 -110.508,42.17 l 2.188,-10.23 c -34.649,11.54 -40.379,-4.38 -77.821,-0.04 -2.277,1.78 11.992,6.44 23.75,8.15 -33.5,-4.42 -31.929,6.6 -64.711,-1.22 8.082,5.67 16.621,9.42 25.242,14.24 -27.32,-1.66 -65.218,-15.9 -53.519,-2.95 -44.563,-19.88 -123.699,-47.79 -168.109,-89.431 l -1.403,9.331 c -20.347,-24.429 -88.738,-72.96 -94.187,-104.6 l -5.442,-1.27 C 106.98,879.32 100.129,859 91.7305,840.551 77.8789,816.949 71.4297,831.469 73.3984,827.77 46.1602,772.539 32.6289,726.129 20.9414,688.07 29.2695,675.621 21.1406,613.121 24.2891,563.102 10.6094,316.051 197.672,76.1914 402.141,20.8203 432.109,10.1016 476.672,10.5117 514.582,9.41016 c -44.73,12.80074 3.43631,28.360563 -40.12169,43.559763 -31.43,14.8008 -68.89171,19.111262 -91.15271,38.419862 l 8.808,-15.5586 c -43.656,15.4414 -16.39462,20.919377 -51.91462,32.169375 l 0.41462,10.47882 c -14.148,1.082 -37.476,22.05373 -43.859,34.67473 l -15.481,-0.609 c -18.597,22.949 -28.507,39.488 -27.789,52.308 l -5,-8.91 c -5.668,9.73 -72.02555,78.87689 -39.46755,61.10789 -6.047,5.531 -14.09,9 -22.808,24.847 l 6.629,7.571 c -15.668,20.16 -28.84,46 -27.84,54.613 8.363,-11.293 14.16,-13.402 19.902,-15.332 -39.57,98.18 -0.5725,5.41 -30.5451,99.941 l 6.3398,0.508 c -4.8594,7.321 -7.8086,15.27 -11.7187,23.071 l 2.7578,27.5 c -28.4688,32.89 -7.9492,79.01345 -3.8399,137.76345 2.8516,23.891 23.7816,49.321 39.7036,89.199 l -9.704,1.668 c 18.543,32.344 44.86645,129.883 85.30345,124.864 19.59,24.609 -3.89,0.09 -7.719,6.289 43.032,44.531 56.559,31.461 85.602,39.469 31.316,18.589 -26.883,-7.25 -12.031,7.089 54.14,13.832 38.371,31.442 109,38.461 7.449,-4.238 -17.289,-6.55 -23.5,-12.05 45.109,22.07 142.75,17.05 206.16,-12.25 C 694.309,865.88145 776.98,825.219 780.238,729.57 l 3.723,-1 c -1.871,-38.019 5.82,-81.988 -7.52,-122.379 l 9.079,19.118"
           inkscape:connector-curvature="0" />
        <path
           id="path3398"
           style="fill:#000000;fill-opacity:1;fill-rule:nonzero;stroke:none"
           d="m 339.32,496.23 -2.519,-12.601 c 11.808,-16.027 21.179,-33.41 36.258,-45.949 -10.848,21.172 -18.911,29.922 -33.739,58.55"
           inkscape:connector-curvature="0" />
        <path
           id="path3400"
           style="fill:#000000;fill-opacity:1;fill-rule:nonzero;stroke:none"
           d="m 367.238,497.32 c -6.25,6.918 -9.949,15.239 -14.09,23.52 3.961,-14.57 12.071,-27.09 19.622,-39.82 l -5.532,16.3"
           inkscape:connector-curvature="0" />
        <path
           id="path3402"
           style="fill:#000000;fill-opacity:1;fill-rule:nonzero;stroke:none"
           d="m 861.281,604.711 -2.633,-6.621 c -4.839,-34.379 -15.289,-68.399 -31.308,-99.942 17.691,33.282 29.129,69.684 33.941,106.563"
           inkscape:connector-curvature="0" />
        <path
           id="path3404"
           style="fill:#000000;fill-opacity:1;fill-rule:nonzero;stroke:none"
           d="m 470.879,1088.5 c 12.152,4.45 29.859,2.44 42.75,5.37 -16.797,-1.41 -33.508,-2.25 -50.039,-4.38 l 7.289,-0.99"
           inkscape:connector-curvature="0" />
      </g>
      <g
         id="g3374"
         transform="matrix(0.35142463,0,0,-0.35142463,173.9613,711.54878)"
         style="display:inline;fill:#c70338;fill-opacity:1">
        <path
           inkscape:connector-curvature="0"
           d="m 467.309,1079.88 c 9.589,-1.72 20.742,-3.04 19.16,-5.33 10.492,2.3 12.883,4.42 -19.16,5.33"
           style="fill:#c70338;fill-opacity:1;fill-rule:nonzero;stroke:none"
           id="path3376" />
        <path
           inkscape:connector-curvature="0"
           d="m 486.469,1074.55 -6.77,-1.4 6.313,0.56 0.457,0.84"
           style="fill:#c70338;fill-opacity:1;fill-rule:nonzero;stroke:none"
           id="path3378" />
        <path
           inkscape:connector-curvature="0"
           d="m 785.52,625.309 c 1.07,-29.059 -8.489,-43.161 -17.129,-68.118 l -15.532,-7.761 c -12.699,-24.68 1.243,-15.68 -7.871,-35.309 -19.84,-17.641 -27.37497,-44.61629 -40.28497,-48.05829 -9.449,0.211 -24.77056,-25.74264 -22.70056,-21.46564 -26.562,-18.238 0.93254,-12.11912 -39.68846,-23.19812 l -19.61782,-12.61788 c -100.191,-47.133 -232.35834,22.74588 -230.52634,150.18288 -1.07,-8.09 -3.043,-6.07 -5.261,-9.34 -5.168,65.571 30.281,131.43 90.07,158.321 58.488,28.949 127.039,17.07 168.941,-21.969 -23.011,30.14 -81.39994,90.86243 -135.67694,87.86943 -53.172,-0.839 -133.48171,-41.82111 -150.08271,-78.50111 -27.238,-17.149 -35.79383,-93.08415 -47.66483,-102.04415 -15.98,-117.372 53.4096,-187.85205 131.2486,-247.50005 12.239,-8.262 3.438,-9.512 5.098,-15.801 -25.859,12.109 -56.7321,44.77722 -76.2011,67.15622 10.328,-15.11 28.6741,-44.20722 43.0841,-55.74622 -24.383,8.262 -64.1461,59.078 -73.6541,61.149 42.027,-75.258 177.7011,-131.969 245.0021,-103.829 -31.141,-1.148 -70.688,-0.64 -105.668,12.29 -14.704,7.55 -34.68,23.218 -31.102,26.152 91.809,-34.301 226.34318,9.45784 305.78018,73.14584 20.223,15.742 53.09067,65.8966 59.46967,66.2686 -9.609,-14.45 -18.14005,0.24311 -25.51905,-12.50689 20.129,32.481 2.03966,-8.36033 31.59766,34.51067 l 5.52717,2.94377 c -4.062,26.969 44.27866,57.91272 40.45766,100.54972 8.621,13.043 9.61,-14.028 0.473,-44.028 12.68,33.278 3.348,38.629 6.598,66.09 3.519,-9.23 8.152,-19.043 10.519,-28.781 -8.269,32.16 8.461,54.16 12.609,72.852 -4.089,1.808 -12.75,-14.223 -14.718,23.769 0.281,16.5 4.59,8.649 6.242,12.711 -3.242,1.859 -11.742,14.508 -16.91,38.77 3.738,5.699 10.019,-14.782 15.109,-15.622 -3.269,19.29 -8.922,34 -9.16,48.801 -14.902,31.141 -5.27,-4.152 -17.359,13.367 -15.852,49.473 13.16,11.481 15.117,33.961 24.051,-34.828 37.75,-88.808 44.051,-111.168 -4.809,27.258 -12.559,53.668 -22.051,79.219 7.32,-3.07 -11.75,56.09 9.511,16.91 -22.71,83.52 -131.31526,175.94522 -199.81526,212.56622 8.367,-7.67 18.957,-17.3 15.156,-18.81 -34.058,20.28 -28.078,21.86 -32.957,30.43 -27.742,11.29 -29.562,-0.91 -47.941,-0.02 -52.301,27.74 -62.379,24.79 -110.508,42.17 l 2.188,-10.23 c -34.649,11.54 -40.379,-4.38 -77.821,-0.04 -2.277,1.78 11.992,6.44 23.75,8.15 -33.5,-4.42 -31.929,6.6 -64.711,-1.22 8.082,5.67 16.621,9.42 25.242,14.24 -27.32,-1.66 -65.218,-15.9 -53.519,-2.95 -44.563,-19.88 -123.699,-47.79 -168.109,-89.431 l -1.403,9.331 c -20.347,-24.429 -88.738,-72.96 -94.187,-104.6 l -5.442,-1.27 C 106.98,879.32 100.129,859 91.7305,840.551 77.8789,816.949 71.4297,831.469 73.3984,827.77 46.1602,772.539 32.6289,726.129 20.9414,688.07 29.2695,675.621 21.1406,613.121 24.2891,563.102 10.6094,316.051 197.672,76.1914 402.141,20.8203 432.109,10.1016 476.672,10.5117 514.582,9.41016 c -44.73,12.80074 3.43631,28.360563 -40.12169,43.559763 -31.43,14.8008 -68.89171,19.111262 -91.15271,38.419862 l 8.808,-15.5586 c -43.656,15.4414 -16.39462,20.919377 -51.91462,32.169375 l 0.41462,10.47882 c -14.148,1.082 -37.476,22.05373 -43.859,34.67473 l -15.481,-0.609 c -18.597,22.949 -28.507,39.488 -27.789,52.308 l -5,-8.91 c -5.668,9.73 -72.02555,78.87689 -39.46755,61.10789 -6.047,5.531 -14.09,9 -22.808,24.847 l 6.629,7.571 c -15.668,20.16 -28.84,46 -27.84,54.613 8.363,-11.293 14.16,-13.402 19.902,-15.332 -39.57,98.18 -0.5725,5.41 -30.5451,99.941 l 6.3398,0.508 c -4.8594,7.321 -7.8086,15.27 -11.7187,23.071 l 2.7578,27.5 c -28.4688,32.89 -7.9492,79.01345 -3.8399,137.76345 2.8516,23.891 23.7816,49.321 39.7036,89.199 l -9.704,1.668 c 18.543,32.344 44.86645,129.883 85.30345,124.864 19.59,24.609 -3.89,0.09 -7.719,6.289 43.032,44.531 56.559,31.461 85.602,39.469 31.316,18.589 -26.883,-7.25 -12.031,7.089 54.14,13.832 38.371,31.442 109,38.461 7.449,-4.238 -17.289,-6.55 -23.5,-12.05 45.109,22.07 142.75,17.05 206.16,-12.25 C 694.309,865.88145 776.98,825.219 780.238,729.57 l 3.723,-1 c -1.871,-38.019 5.82,-81.988 -7.52,-122.379 l 9.079,19.118"
           style="fill:#c70338;fill-opacity:1;fill-rule:nonzero;stroke:none"
           id="path3380"
           sodipodi:nodetypes="cccccccccccccccccccccccccccccccccccccccccccccccccccccccccccccccccccccccccccccccccccccccccccccccc" />
        <path
           inkscape:connector-curvature="0"
           d="m 339.32,496.23 -2.519,-12.601 c 11.808,-16.027 21.179,-33.41 36.258,-45.949 -10.848,21.172 -18.911,29.922 -33.739,58.55"
           style="fill:#c70338;fill-opacity:1;fill-rule:nonzero;stroke:none"
           id="path3382" />
        <path
           inkscape:connector-curvature="0"
           d="m 367.238,497.32 c -6.25,6.918 -9.949,15.239 -14.09,23.52 3.961,-14.57 12.071,-27.09 19.622,-39.82 l -5.532,16.3"
           style="fill:#c70338;fill-opacity:1;fill-rule:nonzero;stroke:none"
           id="path3384" />
        <path
           inkscape:connector-curvature="0"
           d="m 861.281,604.711 -2.633,-6.621 c -4.839,-34.379 -15.289,-68.399 -31.308,-99.942 17.691,33.282 29.129,69.684 33.941,106.563"
           style="fill:#c70338;fill-opacity:1;fill-rule:nonzero;stroke:none"
           id="path3386" />
        <path
           inkscape:connector-curvature="0"
           d="m 470.879,1088.5 c 12.152,4.45 29.859,2.44 42.75,5.37 -16.797,-1.41 -33.508,-2.25 -50.039,-4.38 l 7.289,-0.99"
           style="fill:#c70338;fill-opacity:1;fill-rule:nonzero;stroke:none"
           id="path3388" />
      </g>
    </g>
  </g>
</svg>
